<mxfile host="app.diagrams.net" modified="2020-12-01T22:03:44.374Z" agent="5.0 (Windows NT 10.0; Win64; x64) AppleWebKit/537.36 (KHTML, like Gecko) Chrome/87.0.4280.66 Safari/537.36" etag="y9TdEZN6E2ok4vh5zAEZ" version="13.10.5" type="github">
  <diagram id="C5RBs43oDa-KdzZeNtuy" name="Page-1">
    <mxGraphModel dx="1422" dy="794" grid="1" gridSize="10" guides="1" tooltips="1" connect="1" arrows="1" fold="1" page="1" pageScale="1" pageWidth="827" pageHeight="1169" math="0" shadow="0">
      <root>
        <mxCell id="WIyWlLk6GJQsqaUBKTNV-0" />
        <mxCell id="WIyWlLk6GJQsqaUBKTNV-1" parent="WIyWlLk6GJQsqaUBKTNV-0" />
        <mxCell id="3tXl7RFhwyQ6PLL8QVe3-10" style="edgeStyle=orthogonalEdgeStyle;rounded=0;orthogonalLoop=1;jettySize=auto;html=1;" edge="1" parent="WIyWlLk6GJQsqaUBKTNV-1" source="WIyWlLk6GJQsqaUBKTNV-3" target="3tXl7RFhwyQ6PLL8QVe3-2">
          <mxGeometry relative="1" as="geometry" />
        </mxCell>
        <mxCell id="WIyWlLk6GJQsqaUBKTNV-3" value="Başla&lt;br&gt;" style="rounded=1;whiteSpace=wrap;html=1;fontSize=12;glass=0;strokeWidth=1;shadow=0;" parent="WIyWlLk6GJQsqaUBKTNV-1" vertex="1">
          <mxGeometry x="330" y="70" width="120" height="30" as="geometry" />
        </mxCell>
        <mxCell id="3tXl7RFhwyQ6PLL8QVe3-13" style="edgeStyle=orthogonalEdgeStyle;rounded=0;orthogonalLoop=1;jettySize=auto;html=1;entryX=0.5;entryY=0;entryDx=0;entryDy=0;" edge="1" parent="WIyWlLk6GJQsqaUBKTNV-1" source="3tXl7RFhwyQ6PLL8QVe3-2" target="3tXl7RFhwyQ6PLL8QVe3-11">
          <mxGeometry relative="1" as="geometry" />
        </mxCell>
        <mxCell id="3tXl7RFhwyQ6PLL8QVe3-2" value="BLE ara bağlan" style="rounded=0;whiteSpace=wrap;html=1;" vertex="1" parent="WIyWlLk6GJQsqaUBKTNV-1">
          <mxGeometry x="330" y="130" width="120" height="60" as="geometry" />
        </mxCell>
        <mxCell id="3tXl7RFhwyQ6PLL8QVe3-22" style="edgeStyle=orthogonalEdgeStyle;rounded=0;orthogonalLoop=1;jettySize=auto;html=1;entryX=0.5;entryY=0;entryDx=0;entryDy=0;" edge="1" parent="WIyWlLk6GJQsqaUBKTNV-1" source="3tXl7RFhwyQ6PLL8QVe3-4" target="3tXl7RFhwyQ6PLL8QVe3-21">
          <mxGeometry relative="1" as="geometry" />
        </mxCell>
        <mxCell id="3tXl7RFhwyQ6PLL8QVe3-4" value="BLE kapat" style="rounded=0;whiteSpace=wrap;html=1;" vertex="1" parent="WIyWlLk6GJQsqaUBKTNV-1">
          <mxGeometry x="170" y="440" width="120" height="60" as="geometry" />
        </mxCell>
        <mxCell id="3tXl7RFhwyQ6PLL8QVe3-15" style="edgeStyle=orthogonalEdgeStyle;rounded=0;orthogonalLoop=1;jettySize=auto;html=1;entryX=0.5;entryY=0;entryDx=0;entryDy=0;exitX=1;exitY=0.5;exitDx=0;exitDy=0;" edge="1" parent="WIyWlLk6GJQsqaUBKTNV-1" source="3tXl7RFhwyQ6PLL8QVe3-11" target="3tXl7RFhwyQ6PLL8QVe3-16">
          <mxGeometry relative="1" as="geometry">
            <mxPoint x="414" y="307.5" as="targetPoint" />
            <Array as="points">
              <mxPoint x="300" y="240" />
              <mxPoint x="440" y="240" />
            </Array>
          </mxGeometry>
        </mxCell>
        <mxCell id="3tXl7RFhwyQ6PLL8QVe3-20" style="edgeStyle=orthogonalEdgeStyle;rounded=0;orthogonalLoop=1;jettySize=auto;html=1;entryX=0.5;entryY=0;entryDx=0;entryDy=0;" edge="1" parent="WIyWlLk6GJQsqaUBKTNV-1" source="3tXl7RFhwyQ6PLL8QVe3-11" target="3tXl7RFhwyQ6PLL8QVe3-4">
          <mxGeometry relative="1" as="geometry" />
        </mxCell>
        <mxCell id="3tXl7RFhwyQ6PLL8QVe3-11" value="wifi eepromda&lt;br&gt;kayıtlı mı" style="rhombus;whiteSpace=wrap;html=1;" vertex="1" parent="WIyWlLk6GJQsqaUBKTNV-1">
          <mxGeometry x="160" y="200" width="140" height="87.5" as="geometry" />
        </mxCell>
        <mxCell id="3tXl7RFhwyQ6PLL8QVe3-19" style="edgeStyle=orthogonalEdgeStyle;rounded=0;orthogonalLoop=1;jettySize=auto;html=1;entryX=0.5;entryY=0;entryDx=0;entryDy=0;" edge="1" parent="WIyWlLk6GJQsqaUBKTNV-1" source="3tXl7RFhwyQ6PLL8QVe3-16" target="3tXl7RFhwyQ6PLL8QVe3-18">
          <mxGeometry relative="1" as="geometry" />
        </mxCell>
        <mxCell id="3tXl7RFhwyQ6PLL8QVe3-16" value="&#xa;&#xa;&lt;span style=&quot;color: rgb(0, 0, 0); font-family: helvetica; font-size: 12px; font-style: normal; font-weight: 400; letter-spacing: normal; text-align: center; text-indent: 0px; text-transform: none; word-spacing: 0px; background-color: rgb(248, 249, 250); display: inline; float: none;&quot;&gt;gelen data&amp;nbsp;&lt;/span&gt;&lt;br style=&quot;color: rgb(0, 0, 0); font-family: helvetica; font-size: 12px; font-style: normal; font-weight: 400; letter-spacing: normal; text-align: center; text-indent: 0px; text-transform: none; word-spacing: 0px; background-color: rgb(248, 249, 250);&quot;&gt;&lt;span style=&quot;color: rgb(0, 0, 0); font-family: helvetica; font-size: 12px; font-style: normal; font-weight: 400; letter-spacing: normal; text-align: center; text-indent: 0px; text-transform: none; word-spacing: 0px; background-color: rgb(248, 249, 250); display: inline; float: none;&quot;&gt;wifi parametresi mi&lt;/span&gt;&#xa;&#xa;" style="rhombus;whiteSpace=wrap;html=1;" vertex="1" parent="WIyWlLk6GJQsqaUBKTNV-1">
          <mxGeometry x="370" y="250" width="140" height="100" as="geometry" />
        </mxCell>
        <mxCell id="3tXl7RFhwyQ6PLL8QVe3-18" value="eeproma kaydet" style="rounded=0;whiteSpace=wrap;html=1;" vertex="1" parent="WIyWlLk6GJQsqaUBKTNV-1">
          <mxGeometry x="380" y="370" width="120" height="60" as="geometry" />
        </mxCell>
        <mxCell id="3tXl7RFhwyQ6PLL8QVe3-24" style="edgeStyle=orthogonalEdgeStyle;rounded=0;orthogonalLoop=1;jettySize=auto;html=1;entryX=0.5;entryY=0;entryDx=0;entryDy=0;" edge="1" parent="WIyWlLk6GJQsqaUBKTNV-1" source="3tXl7RFhwyQ6PLL8QVe3-21" target="3tXl7RFhwyQ6PLL8QVe3-23">
          <mxGeometry relative="1" as="geometry" />
        </mxCell>
        <mxCell id="3tXl7RFhwyQ6PLL8QVe3-21" value="wifi başlat" style="rounded=0;whiteSpace=wrap;html=1;" vertex="1" parent="WIyWlLk6GJQsqaUBKTNV-1">
          <mxGeometry x="170" y="525" width="120" height="60" as="geometry" />
        </mxCell>
        <mxCell id="3tXl7RFhwyQ6PLL8QVe3-26" style="edgeStyle=orthogonalEdgeStyle;rounded=0;orthogonalLoop=1;jettySize=auto;html=1;" edge="1" parent="WIyWlLk6GJQsqaUBKTNV-1" source="3tXl7RFhwyQ6PLL8QVe3-23" target="3tXl7RFhwyQ6PLL8QVe3-25">
          <mxGeometry relative="1" as="geometry" />
        </mxCell>
        <mxCell id="3tXl7RFhwyQ6PLL8QVe3-23" value="uarttan dataları oku&lt;br&gt;" style="rounded=0;whiteSpace=wrap;html=1;" vertex="1" parent="WIyWlLk6GJQsqaUBKTNV-1">
          <mxGeometry x="170" y="620" width="120" height="60" as="geometry" />
        </mxCell>
        <mxCell id="3tXl7RFhwyQ6PLL8QVe3-29" style="edgeStyle=orthogonalEdgeStyle;rounded=0;orthogonalLoop=1;jettySize=auto;html=1;entryX=0.5;entryY=0;entryDx=0;entryDy=0;" edge="1" parent="WIyWlLk6GJQsqaUBKTNV-1" source="3tXl7RFhwyQ6PLL8QVe3-25" target="3tXl7RFhwyQ6PLL8QVe3-28">
          <mxGeometry relative="1" as="geometry" />
        </mxCell>
        <mxCell id="3tXl7RFhwyQ6PLL8QVe3-25" value="Data eskisiyle&lt;br&gt;&amp;nbsp;aynı mı?" style="rhombus;whiteSpace=wrap;html=1;" vertex="1" parent="WIyWlLk6GJQsqaUBKTNV-1">
          <mxGeometry x="165" y="700" width="130" height="90" as="geometry" />
        </mxCell>
        <mxCell id="3tXl7RFhwyQ6PLL8QVe3-31" style="edgeStyle=orthogonalEdgeStyle;rounded=0;orthogonalLoop=1;jettySize=auto;html=1;entryX=0.5;entryY=0;entryDx=0;entryDy=0;" edge="1" parent="WIyWlLk6GJQsqaUBKTNV-1" source="3tXl7RFhwyQ6PLL8QVe3-28" target="3tXl7RFhwyQ6PLL8QVe3-30">
          <mxGeometry relative="1" as="geometry" />
        </mxCell>
        <mxCell id="3tXl7RFhwyQ6PLL8QVe3-28" value="devam" style="ellipse;whiteSpace=wrap;html=1;aspect=fixed;" vertex="1" parent="WIyWlLk6GJQsqaUBKTNV-1">
          <mxGeometry x="190" y="810" width="80" height="80" as="geometry" />
        </mxCell>
        <mxCell id="3tXl7RFhwyQ6PLL8QVe3-30" value="wifi kapat" style="rounded=0;whiteSpace=wrap;html=1;" vertex="1" parent="WIyWlLk6GJQsqaUBKTNV-1">
          <mxGeometry x="170" y="910" width="120" height="60" as="geometry" />
        </mxCell>
      </root>
    </mxGraphModel>
  </diagram>
</mxfile>
